<?xml version="1.0" encoding="iso-8859-1"?>
<!-- Generator: Adobe Illustrator 19.0.0, SVG Export Plug-In . SVG Version: 6.00 Build 0)  -->
<svg version="1.1" id="Capa_1" xmlns="http://www.w3.org/2000/svg" xmlns:xlink="http://www.w3.org/1999/xlink" x="0px" y="0px"
	 viewBox="0 0 503.708 503.708" style="enable-background:new 0 0 503.708 503.708;" xml:space="preserve">
<g>
	<g transform="translate(1 1)">
		<path style="fill:#A4C2F7;" d="M494.264,427.035v58.754c0.008,2.228-0.874,4.368-2.45,5.944c-1.576,1.576-3.715,2.458-5.944,2.45
			H15.837c-2.228,0.008-4.368-0.874-5.944-2.45c-1.576-1.576-2.458-3.715-2.45-5.944v-58.754c0.015-4.297,3.278-7.887,7.554-8.31
			c0.274-0.069,0.557-0.098,0.839-0.084h58.754c2.228,0.008,4.368-0.874,5.944-2.45c1.576-1.576,2.458-3.715,2.45-5.944v-58.754
			c0.015-4.297,3.278-7.887,7.554-8.31c0.274-0.069,0.557-0.098,0.839-0.084h58.754c2.228,0.008,4.368-0.874,5.944-2.45
			c1.576-1.576,2.458-3.715,2.45-5.944v-58.754c0.015-4.297,3.278-7.887,7.554-8.31c0.274-0.069,0.557-0.098,0.839-0.084h167.869
			c4.63,0.014,8.38,3.764,8.393,8.393v58.754c-0.008,2.228,0.874,4.368,2.45,5.944s3.715,2.458,5.944,2.45h58.754
			c4.63,0.014,8.38,3.764,8.393,8.393v58.754c-0.008,2.228,0.874,4.368,2.45,5.944s3.715,2.458,5.944,2.45h58.754
			C490.5,418.655,494.25,422.405,494.264,427.035z"/>
		<path style="fill:#E3E7F2;" d="M469.083,427.119v58.754c-0.015,4.297-3.278,7.886-7.554,8.31H15.837
			c-2.228,0.008-4.368-0.874-5.944-2.45c-1.576-1.576-2.458-3.715-2.45-5.944v-58.754c0.015-4.297,3.278-7.887,7.554-8.31h34.413
			c0.282,0.014,0.565-0.014,0.839-0.084h24.341c2.228,0.008,4.368-0.874,5.944-2.45c1.576-1.576,2.458-3.715,2.45-5.944v-58.754
			c0.015-4.297,3.278-7.887,7.554-8.31h34.413c0.282,0.014,0.565-0.014,0.839-0.084h24.341c2.228,0.008,4.368-0.874,5.944-2.45
			c1.576-1.576,2.458-3.715,2.45-5.944v-58.754c0.015-4.297,3.278-7.887,7.554-8.31h143.528c4.63,0.014,8.38,3.764,8.393,8.393
			v58.754c-0.008,2.228,0.874,4.368,2.45,5.944c1.576,1.576,3.715,2.458,5.944,2.45h58.754c4.63,0.014,8.38,3.764,8.393,8.393
			v58.754c-0.008,2.228,0.874,4.368,2.45,5.944c1.576,1.576,3.715,2.458,5.944,2.45h58.754
			C465.32,418.739,469.069,422.489,469.083,427.119z"/>
		<g>
			<path style="fill:#A4C2F7;" d="M343.182,15.756v75.541c0.014,24.491-9.709,47.983-27.027,65.301
				c-17.318,17.318-40.81,27.041-65.301,27.027c-4.215,0.033-8.425-0.276-12.59-0.923c-45.713-6.212-79.787-45.272-79.738-91.405
				V15.756c0.014-4.63,3.764-8.38,8.393-8.393h167.869C339.418,7.377,343.168,11.126,343.182,15.756z"/>
			<path style="fill:#A4C2F7;" d="M318.001,267.56H183.706c0.008-23.174,18.793-41.959,41.967-41.967h50.361
				C299.208,225.601,317.993,244.385,318.001,267.56z"/>
		</g>
		<g>
			<path style="fill:#E3E7F2;" d="M318.001,15.756v75.541c0.057,46.136-34.021,85.2-79.738,91.405
				c-45.713-6.212-79.787-45.272-79.738-91.405V15.756c0.014-4.63,3.764-8.38,8.393-8.393h142.689
				C314.238,7.377,317.988,11.126,318.001,15.756z"/>
			<path style="fill:#E3E7F2;" d="M292.821,267.56H183.706c0.008-23.174,18.793-41.959,41.967-41.967h25.18
				C274.028,225.601,292.813,244.385,292.821,267.56z"/>
			<rect x="234.067" y="183.659" style="fill:#E3E7F2;" width="33.574" height="41.967"/>
		</g>
		<polygon style="fill:#F0C419;" points="251.609,338.232 267.406,370.236 302.717,375.373 277.167,400.285 283.194,435.462 
			251.609,418.851 220.016,435.462 226.051,400.285 200.493,375.373 235.813,370.236 		"/>
		<polygon style="fill:#E3E7F2;" points="251.609,338.232 267.406,370.236 302.717,375.373 277.167,400.285 283.194,435.462 
			251.609,418.851 220.016,435.462 226.051,400.285 200.493,375.373 235.813,370.236 		"/>
	</g>
	<g transform="translate(1 2)">
		<path style="fill:#FFFFFF;" d="M175.313,342.268c2.228,0.008,4.368-0.874,5.944-2.45c1.576-1.576,2.458-3.715,2.45-5.944v-58.754
			c0.015-4.297,3.278-7.887,7.554-8.31c0.274-0.069,0.557-0.098,0.839-0.084h16.787c0.008-23.174,18.793-41.959,41.967-41.967h8.393
			v-43.651c-43.773-7.996-75.567-46.147-75.541-90.644V14.924c0.014-4.63,3.764-8.38,8.393-8.393h-25.18
			c-4.63,0.014-8.38,3.764-8.393,8.393v75.541c-0.026,44.497,31.768,82.648,75.541,90.644v43.651h-8.393
			c-23.174,0.008-41.959,18.793-41.967,41.967h-16.787c-0.282-0.014-0.565,0.014-0.839,0.084c-4.276,0.423-7.539,4.012-7.554,8.31
			v58.754c0.008,2.228-0.874,4.368-2.45,5.944c-1.576,1.576-3.715,2.458-5.944,2.45L175.313,342.268z"/>
		<path style="fill:#FFFFFF;" d="M99.772,417.809c2.228,0.008,4.368-0.874,5.944-2.45c1.576-1.576,2.458-3.715,2.45-5.944v-58.754
			c0.015-4.297,3.278-7.887,7.554-8.31c0.274-0.069,0.557-0.098,0.839-0.084h-25.18c-0.282-0.014-0.565,0.014-0.839,0.084
			c-4.276,0.423-7.539,4.012-7.554,8.31v58.754c0.008,2.228-0.874,4.368-2.45,5.944c-1.576,1.576-3.715,2.458-5.944,2.45
			L99.772,417.809z"/>
		<path style="fill:#FFFFFF;" d="M15.837,493.35l25.18,0c-2.228,0.008-4.368-0.874-5.944-2.45s-2.458-3.715-2.45-5.944v-58.754
			c0.015-4.297,3.278-7.887,7.554-8.31c0.274-0.069,0.557-0.098,0.839-0.084h-25.18c-0.282-0.014-0.565,0.014-0.839,0.084
			c-4.276,0.423-7.539,4.012-7.554,8.31v58.754c-0.008,2.228,0.874,4.368,2.45,5.944S13.609,493.358,15.837,493.35z"/>
	</g>
	<g>
		<polygon style="fill:#FFFFFF;" points="16.837,486.823 125.952,486.823 486.87,486.823 486.87,503.609 125.952,503.609 
			16.837,503.609 		"/>
		<g>
			<path style="fill:#428DFF;" d="M83.985,486.821c-2.222,0.033-4.35,0.902-5.959,2.434l-1.008,1.258
				c-0.319,0.468-0.574,0.977-0.758,1.512c-0.242,0.476-0.41,0.986-0.5,1.512c-0.094,0.554-0.151,1.114-0.168,1.676
				c0.031,2.222,0.9,4.351,2.434,5.959c1.962,2.036,4.828,2.93,7.599,2.37c2.771-0.56,5.065-2.497,6.081-5.136
				c0.431-1.01,0.659-2.095,0.673-3.193c0.022-2.233-0.856-4.38-2.434-5.959C88.365,487.677,86.218,486.799,83.985,486.821z"/>
			<path style="fill:#428DFF;" d="M486.87,411.279h-58.754v-58.754c-0.009-9.267-7.52-16.778-16.787-16.787h-58.754v-58.754
				c-0.009-9.267-7.52-16.778-16.787-16.787h-9.152c-4.107-24.203-25.054-41.926-49.602-41.967v-28.496
				c38.504-10.018,67.521-41.737,74.079-80.978c34.196-3.593,60.172-32.404,60.216-66.788c-0.009-9.267-7.52-16.778-16.787-16.787
				h-41.967v-8.393C352.566,7.52,345.056,0.009,335.788,0H167.919c-9.267,0.009-16.778,7.52-16.787,16.787v8.393h-41.967
				c-9.267,0.009-16.778,7.52-16.787,16.787c0.044,34.384,26.02,63.196,60.216,66.788c6.559,39.242,35.575,70.961,74.079,80.978
				v28.496c-24.548,0.042-45.496,17.765-49.602,41.967h-9.152c-9.267,0.009-16.778,7.52-16.787,16.787v58.754H92.378
				c-9.267,0.009-16.778,7.52-16.787,16.787v58.754H16.837c-9.267,0.009-16.778,7.52-16.787,16.787v58.754
				c0.009,9.267,7.52,16.778,16.787,16.787v0.002h33.574c4.636,0,8.393-3.758,8.393-8.393s-3.758-8.393-8.393-8.393H16.845
				l-0.008-0.002v-58.754h58.754c9.267-0.009,16.778-7.52,16.787-16.787v-58.754h58.754c9.267-0.009,16.778-7.52,16.787-16.787
				v-58.754h167.869v58.754c0.009,9.267,7.52,16.778,16.787,16.787h58.754v58.754c0.009,9.267,7.52,16.778,16.787,16.787h58.754
				v58.754l-0.008,0.002H117.559c-4.636,0-8.393,3.758-8.393,8.393c0,4.636,3.758,8.393,8.393,8.393H486.87v-0.002
				c9.267-0.009,16.778-7.52,16.787-16.787v-58.754C503.648,418.798,496.137,411.288,486.87,411.279z M394.542,41.967
				c-0.032,24.563-17.753,45.533-41.967,49.66v-49.66H394.542z M109.165,41.967h41.967v49.66
				C126.918,87.5,109.197,66.531,109.165,41.967z M167.919,92.328V16.787h167.869v75.541c0,46.356-37.579,83.934-83.934,83.934
				S167.919,138.684,167.919,92.328z M243.46,193.049h16.787v25.18H243.46V193.049z M194.161,260.197
				c3.848-14.812,17.209-25.16,32.512-25.18h50.361c15.304,0.021,28.664,10.368,32.512,25.18H194.161z"/>
			<path style="fill:#428DFF;" d="M311.706,373.779c-0.988-3.039-3.616-5.254-6.779-5.713l-30.951-4.496l-13.84-28.045
				c-1.573-2.663-4.436-4.298-7.529-4.298s-5.956,1.634-7.529,4.298L231.24,363.57l-30.951,4.496
				c-3.163,0.459-5.791,2.674-6.779,5.713c-0.987,3.04-0.163,6.376,2.127,8.606l22.394,21.828l-5.287,30.828
				c-0.539,3.149,0.756,6.331,3.341,8.209s6.012,2.126,8.84,0.639l27.684-14.553l27.684,14.553c2.828,1.486,6.255,1.239,8.84-0.639
				s3.88-5.06,3.341-8.209l-5.287-30.828l22.394-21.828C311.87,380.155,312.694,376.818,311.706,373.779z M272.309,395.271
				c-1.978,1.929-2.882,4.707-2.418,7.43l3.16,18.414l-16.537-8.693c-2.446-1.284-5.366-1.284-7.812,0l-16.537,8.693l3.16-18.414
				c0.464-2.724-0.44-5.501-2.418-7.43l-13.377-13.037l18.488-2.684c2.736-0.397,5.101-2.115,6.324-4.594l8.266-16.75l8.266,16.75
				c1.223,2.479,3.588,4.197,6.324,4.594l18.488,2.684L272.309,395.271z"/>
			<path style="fill:#428DFF;" d="M413.788,182.197c1.574,1.574,3.708,2.459,5.934,2.459c2.226,0,4.361-0.885,5.934-2.459
				l10.852-10.852v72.066c0,4.636,3.758,8.393,8.393,8.393s8.393-3.758,8.393-8.393v-72.066l10.853,10.853
				c2.117,2.135,5.215,2.975,8.12,2.2c2.906-0.774,5.175-3.044,5.949-5.949c0.774-2.906-0.066-6.003-2.201-8.12L450.84,145.15
				c-3.285-3.264-8.589-3.264-11.874,0l-25.177,25.178c-1.574,1.574-2.459,3.708-2.459,5.934S412.214,180.623,413.788,182.197z"/>
			<path style="fill:#428DFF;" d="M39.558,182.197l10.853-10.852v72.066c0,4.636,3.758,8.393,8.393,8.393s8.393-3.758,8.393-8.393
				v-72.066l10.853,10.853c3.282,3.253,8.576,3.242,11.843-0.026c3.267-3.268,3.279-8.562,0.025-11.843L64.742,145.15
				c-3.285-3.264-8.589-3.264-11.874,0L27.69,170.328c-3.242,3.283-3.226,8.568,0.037,11.831
				C30.99,185.422,36.275,185.439,39.558,182.197z"/>
		</g>
	</g>
</g>
<g>
</g>
<g>
</g>
<g>
</g>
<g>
</g>
<g>
</g>
<g>
</g>
<g>
</g>
<g>
</g>
<g>
</g>
<g>
</g>
<g>
</g>
<g>
</g>
<g>
</g>
<g>
</g>
<g>
</g>
</svg>
